#!OML:ASF X:\für Bonn\!DataBase\2005_08_12_Daniel\c3d\Daniel.ASF
:FULLY-SPECIFIED
:DEGREES
211
root 0.956703 12.0769 0.760735 160.181 -16.071 -178.657
lowerback 62.0585 -3.50259 12.1573
upperback 10.1607 -3.36613 2.46641
thorax -9.61277 -4.58951 -0.34394
lowerneck 4.36791 -7.97895 -2.8596
upperneck 13.9299 -12.8193 6.7638
head 4.09008 -6.50938 2.16408
rclavicle -3.97569e-015 -7.95139e-015
rhumerus 3.95791 6.16464 -62.1551
rradius 29.0438
rwrist 0.199164
rhand -14.1835 10.4983
rfingers 7.12502
rthumb 11.9522 -19.1405
lclavicle -3.97569e-015 -7.95139e-015
lhumerus -12.4002 20.6079 85.9884
lradius 27.9521
lwrist -21.3982
lhand -12.4131 -6.79553
lfingers 7.12502
lthumb 13.6589 22.7363
rfemur -45.1602 -26.6904 2.7108
rtibia 111.914
rfoot -17.4289 27.2724
rtoes -5.10104
lfemur -48.2868 11.2391 -8.07647
ltibia 112.183
lfoot -34.2043 -31.1986
ltoes -1.8484
212
root 0.962222 12.244 0.770888 160.808 -15.9326 -178.63
lowerback 61.4067 -3.43756 12.0286
upperback 10.1453 -3.32592 2.42434
thorax -9.63494 -4.51249 -0.394879
lowerneck 4.05971 -7.93322 -2.96486
upperneck 14.1009 -12.7784 6.81766
head 4.19934 -6.48132 2.17735
rclavicle 5.1684e-014 7.95139e-014
rhumerus 3.60525 6.26016 -62.3603
rradius 29.3052
rwrist 0.215766
rhand -14.3916 10.7288
rfingers 7.12502
rthumb 11.7515 -18.9216
lclavicle 5.1684e-014 7.95139e-014
lhumerus -12.0004 20.7328 85.9735
lradius 27.8824
lwrist -21.1722
lhand -12.5121 -6.78123
lfingers 7.12502
lthumb 13.5635 22.757
rfemur -44.8367 -25.9019 3.73191
rtibia 110.253
rfoot -17.9295 26.3987
rtoes -5.08993
lfemur -47.7252 10.4996 -8.48633
ltibia 110.508
lfoot -34.4732 -30.3313
ltoes -2.37268
213
root 0.968681 12.4115 0.780749 161.434 -15.7915 -178.644
lowerback 60.8036 -3.36036 11.8565
upperback 10.0981 -3.28241 2.38518
thorax -9.69358 -4.43454 -0.42051
lowerneck 3.83096 -7.88268 -3.04049
upperneck 14.2402 -12.7242 6.83074
head 4.2812 -6.45061 2.17969
rclavicle 4.6118e-014 -3.49861e-014
rhumerus 3.26887 6.33104 -62.5968
rradius 29.4959
rwrist 0.287958
rhand -14.6372 10.9984
rfingers 7.12502
rthumb 11.5147 -18.6653
lclavicle 4.6118e-014 -3.49861e-014
lhumerus -11.6293 20.8452 85.9739
lradius 27.8142
lwrist -20.921
lhand -12.7075 -6.78647
lfingers 7.12502
lthumb 13.3751 22.7642
rfemur -44.4659 -25.1331 4.66032
rtibia 108.549
rfoot -18.4417 25.5547
rtoes -5.01475
lfemur -47.1341 9.8204 -8.9121
ltibia 108.802
lfoot -34.7405 -29.4466
ltoes -2.91759
214
root 0.976043 12.5789 0.791339 162.035 -15.6426 -178.616
lowerback 60.1789 -3.29794 11.7494
upperback 10.0636 -3.22229 2.34086
thorax -9.72801 -4.34978 -0.488549
lowerneck 3.69901 -7.85 -3.07315
upperneck 14.2846 -12.6867 6.87875
head 4.31894 -6.42784 2.19266
rclavicle -6.2816e-014 3.18055e-014
rhumerus 2.8594 6.3176 -62.8672
rradius 29.7329
rwrist 0.407617
rhand -14.9105 11.2264
rfingers 7.12502
rthumb 11.2511 -18.4519
lclavicle -6.2816e-014 3.18055e-014
lhumerus -11.2558 20.8833 85.9909
lradius 27.7643
lwrist -20.694
lhand -12.9203 -6.86763
lfingers 7.12502
lthumb 13.17 22.6964
rfemur -44.0498 -24.4013 5.58487
rtibia 106.812
rfoot -18.9898 24.7632
rtoes -5.0752
lfemur -46.5353 9.16396 -9.26849
ltibia 107.082
lfoot -34.9617 -28.561
ltoes -3.43795
215
root 0.98323 12.7456 0.80326 162.653 -15.4943 -178.631
lowerback 59.5643 -3.23487 11.5864
upperback 10.0098 -3.1871 2.28286
thorax -9.78668 -4.27388 -0.534861
lowerneck 3.65974 -7.80062 -3.06154
upperneck 14.2869 -12.6204 6.89248
head 4.32239 -6.3947 2.19572
rclavicle -3.02153e-014 -3.33958e-014
rhumerus 2.48994 6.32649 -63.2051
rradius 29.9196
rwrist 0.539627
rhand -15.2227 11.4742
rfingers 7.12502
rthumb 10.95 -18.2203
lclavicle -3.02153e-014 -3.33958e-014
lhumerus -10.9596 20.9017 85.9645
lradius 27.7783
lwrist -20.4343
lhand -13.0915 -6.96115
lfingers 7.12502
lthumb 13.005 22.6135
rfemur -43.637 -23.7016 6.41723
rtibia 105.047
rfoot -19.5531 23.9859
rtoes -5.04308
lfemur -45.9445 8.52246 -9.65245
ltibia 105.335
lfoot -35.1414 -27.6907
ltoes -3.73212
216
root 0.990933 12.9129 0.815688 163.242 -15.3392 -178.603
lowerback 58.9869 -3.1926 11.4548
upperback 9.92243 -3.14246 2.23925
thorax -9.87808 -4.19563 -0.577546
lowerneck 3.65002 -7.74937 -2.99179
upperneck 14.321 -12.5513 6.83424
head 4.32292 -6.3625 2.16929
rclavicle 1.27222e-014 4.29375e-014
rhumerus 2.07813 6.25764 -63.5991
rradius 30.0754
rwrist 0.724868
rhand -15.5236 11.7371
rfingers 7.12502
rthumb 10.6597 -17.9725
lclavicle 1.27222e-014 4.29375e-014
lhumerus -10.7411 20.8861 85.9499
lradius 27.8495
lwrist -20.198
lhand -13.1993 -7.01576
lfingers 7.12502
lthumb 12.9011 22.5655
rfemur -43.1659 -23.0429 7.25877
rtibia 103.239
rfoot -20.2022 23.2149
rtoes -5.37115
lfemur -45.3383 7.95388 -9.96851
ltibia 103.567
lfoot -35.3169 -26.815
ltoes -4.22579
217
root 0.999199 13.0821 0.828752 163.837 -15.2008 -178.595
lowerback 58.3828 -3.15456 11.3144
upperback 9.86015 -3.12087 2.19187
thorax -9.93716 -4.12889 -0.613283
lowerneck 3.6223 -7.69661 -2.9251
upperneck 14.3151 -12.4723 6.79557
head 4.31502 -6.3234 2.14961
rclavicle -7.95139e-016 3.18055e-015
rhumerus 1.7211 6.06367 -64.0713
rradius 30.2078
rwrist 0.991003
rhand -15.76 12.0556
rfingers 7.12502
rthumb 10.4317 -17.6657
lclavicle -7.95139e-016 3.18055e-015
lhumerus -10.529 20.7557 85.9388
lradius 28.003
lwrist -19.8519
lhand -13.3545 -7.04739
lfingers 7.12502
lthumb 12.7515 22.5432
rfemur -42.6668 -22.4005 8.0343
rtibia 101.377
rfoot -20.7969 22.5048
rtoes -5.4201
lfemur -44.7265 7.39576 -10.3056
ltibia 101.762
lfoot -35.4016 -25.895
ltoes -4.53308
